<svg width="21" height="20" viewBox="0 0 21 20" fill="none" xmlns="http://www.w3.org/2000/svg">
<path d="M8.9265 19.3756C7.70274 19.3756 6.70729 18.3801 6.70729 17.1564C6.70729 16.867 6.76223 16.5866 6.87048 16.3217H6.10497C5.02731 16.3217 4.13523 15.445 4.11651 14.3678C4.10715 13.829 4.31023 13.3211 4.6883 12.9373C5.02202 12.5987 5.45992 12.3936 5.93079 12.3525L3.17722 2.13547C3.15687 2.061 3.0885 2.0089 3.01077 2.0089H0.692257C0.310519 2.0089 0 1.69839 0 1.31665C0 0.934908 0.310519 0.62439 0.692257 0.62439H3.01077C3.71239 0.62439 4.33017 1.09729 4.51371 1.77449L5.22144 4.40026C6.79478 4.40637 8.86993 4.41532 10.9585 4.42428C14.9134 4.44096 19.0031 4.45846 19.6892 4.45846C20.0901 4.45846 20.4641 4.63997 20.7152 4.957C20.9651 5.272 21.0563 5.67775 20.9659 6.06925L19.4837 12.488C19.3144 13.221 18.671 13.7325 17.9189 13.7325C17.56 13.7325 17.1245 13.7325 16.6337 13.7325C15.915 13.7325 15.077 13.7325 14.1874 13.7329C13.1802 13.7329 12.1062 13.7333 11.0627 13.7333C8.61679 13.7333 7.04182 13.7317 6.107 13.7284C5.69718 13.75 5.51038 14.0585 5.50998 14.3365C5.50998 14.6197 5.69433 14.9152 6.107 14.9371H18.3662C18.7479 14.9371 19.0584 15.2477 19.0584 15.6294C19.0584 15.896 18.9062 16.1353 18.6714 16.2504C18.8 16.5361 18.8651 16.8405 18.8651 17.156C18.8651 18.3797 17.8697 19.3752 16.6459 19.3752C15.4222 19.3752 14.4267 18.3797 14.4267 17.156C14.4267 16.8666 14.4816 16.5866 14.5899 16.3217H10.9829C11.0912 16.5866 11.1461 16.867 11.1461 17.1564C11.1461 18.3801 10.1507 19.3756 8.9269 19.3756H8.9265ZM8.92568 16.3217C8.46581 16.3217 8.09139 16.6965 8.09139 17.1564C8.09139 17.6162 8.46581 17.9911 8.92609 17.9911C9.38637 17.9911 9.76079 17.6166 9.76079 17.1564C9.76079 16.6961 9.38678 16.3221 8.9265 16.3217L8.92487 16.2403V16.3217H8.92568ZM16.6313 16.3217C16.1787 16.3294 15.8104 16.7034 15.8104 17.156C15.8104 17.6085 16.1848 17.9906 16.6451 17.9906C17.1054 17.9906 17.4798 17.6162 17.4802 17.156C17.4802 16.703 17.1119 16.3286 16.6589 16.3217H16.6313ZM17.9185 12.3484C18.0223 12.3484 18.111 12.2776 18.1342 12.1767L18.6869 9.78367H16.8665L16.5279 12.3484H17.9181H17.9185ZM15.132 12.3484L15.4706 9.78367H13.4785V12.3484H15.132ZM12.094 12.3484V9.78367H10.0982L10.4392 12.3484H12.0935H12.094ZM7.31449 12.1653C7.34379 12.2731 7.44228 12.3484 7.5546 12.3484H9.04289L8.70185 9.78367H6.67269L7.31449 12.1653ZM15.6533 8.39957L15.9927 5.82792L13.4785 5.81774V8.39957H15.6533ZM12.094 8.39957V5.81205L9.56829 5.80187L9.91381 8.39957H12.0935H12.094ZM19.0068 8.39957L19.5973 5.84257L17.3878 5.83362L17.0492 8.39957H19.0068ZM8.51749 8.39957L8.17116 5.79658L5.59503 5.786L6.2995 8.39957H8.51749Z" fill="#4C4A48"/>
</svg>
