<svg width="32" height="32" viewBox="0 0 32 32" fill="none" xmlns="http://www.w3.org/2000/svg">
<path d="M23.3437 10.2381C22.6768 9.51 21.6401 8.52731 21.199 10.7462C21.049 11.5006 20.6986 12.0822 20.3982 12.5504C20.0746 10.9122 19.1007 9.2165 18.1831 8.07319C17.8397 7.64544 16.6213 5.945 16.3872 3.10025C16.3523 2.67569 15.848 2.47631 15.5326 2.76269C12.5181 5.49919 10.8634 9.26281 10.802 13.4999C10.802 13.4999 9.54675 12.4418 8.86481 10.4734C8.68119 9.94337 7.97056 9.84225 7.66225 10.3109C7.60306 10.4009 7.54819 10.4911 7.49869 10.5786C5.17287 14.6911 4.05406 19.6851 5.08837 24.3314C6.81775 32.1124 18.2574 34.2878 24.3136 29.3972C30.2389 24.6125 28.3554 15.7069 23.3437 10.2381Z" fill="#ED694A"/>
<path d="M6.69819 24.8199C5.67587 20.1239 6.758 15.0813 9.02919 10.9044C8.97175 10.7658 8.9165 10.6225 8.86487 10.4735C8.68125 9.94344 7.97063 9.84232 7.66231 10.311C7.60313 10.401 7.54831 10.4911 7.49881 10.5786C5.173 14.6911 4.05419 19.6852 5.0885 24.3314C5.87731 27.8806 8.68656 30.2627 12.0835 31.3408C9.4335 30.0571 7.35825 27.8565 6.69819 24.8199Z" fill="#D8553A"/>
<path d="M12.4198 13.4219C12.5453 9.57644 13.9362 6.12831 16.4256 3.47944C16.4084 3.33356 16.3957 3.20313 16.3876 3.10413C16.3519 2.67594 15.866 2.46119 15.5519 2.74506C12.6404 5.37744 10.8657 9.103 10.8021 13.4998L11.347 13.9229C11.6154 14.1314 11.979 14.1223 12.2353 13.9314C12.3882 13.8018 12.4102 13.6061 12.4198 13.4219Z" fill="#D8553A"/>
<path d="M21.5151 15.9261C21.0226 15.3884 20.2568 14.6625 19.9311 16.3014C19.8203 16.8586 19.5614 17.2882 19.3397 17.6341C19.1006 16.4241 18.3813 15.1716 17.7035 14.3271C17.4499 14.0112 16.55 12.7552 16.3771 10.6539C16.3512 10.3403 15.9788 10.1931 15.7458 10.4046C13.5192 12.4258 12.2971 15.2058 12.2517 18.3353C12.2517 18.3353 11.3246 17.5538 10.8209 16.0999C10.6853 15.7084 10.1604 15.6337 9.93269 15.9799C9.889 16.0464 9.84844 16.113 9.81188 16.1776C8.09394 19.2152 7.26756 22.9039 8.0315 26.3357C9.30888 32.083 17.7584 33.6898 22.2316 30.0775C26.6081 26.5434 25.2169 19.9656 21.5151 15.9261Z" fill="#F4A32C"/>
<path d="M9.62463 26.7866C8.94825 23.4318 9.64881 19.8321 11.1341 16.8346C11.0209 16.613 10.9137 16.368 10.8208 16.1C10.6852 15.7085 10.1603 15.6338 9.93256 15.9799C9.88888 16.0464 9.84831 16.113 9.81175 16.1777C8.09388 19.2153 7.26756 22.9039 8.03138 26.3358C8.6255 29.0088 10.7712 30.7855 13.3464 31.5587C11.5167 30.6411 10.0761 29.029 9.62463 26.7866Z" fill="#E89528"/>
<path d="M19.8459 21.119C19.5125 20.755 18.994 20.2636 18.7735 21.3731C18.6986 21.7503 18.5232 22.0411 18.3731 22.2752C18.2112 21.456 17.7244 20.6082 17.2655 20.0366C17.0939 19.8227 16.4847 18.9725 16.3676 17.5501C16.3501 17.3377 16.098 17.2381 15.9402 17.3813C14.433 18.7496 13.6057 20.6314 13.575 22.7499C13.575 22.7499 12.9473 22.2208 12.6064 21.2367C12.5146 20.9717 12.1593 20.9211 12.0052 21.1554C11.9756 21.2004 11.9482 21.2455 11.9234 21.2892C10.7605 23.3455 10.2011 25.8425 10.7182 28.1657C11.5829 32.0562 17.3027 33.1439 20.3307 30.6986C21.3677 29.8612 22.0106 28.6813 22.141 27.3761C22.3378 25.3992 21.577 23.0081 19.8459 21.119Z" fill="#F4D44E"/>
<path d="M18.2968 25.9379C18.1111 25.7351 17.8222 25.4613 17.6994 26.0794C17.6576 26.2896 17.56 26.4516 17.4763 26.582C17.3861 26.1256 17.1149 25.6532 16.8592 25.3348C16.7636 25.2156 16.4242 24.7419 16.3589 23.9495C16.3492 23.8312 16.2087 23.7757 16.1209 23.8554C15.2812 24.6177 14.8202 25.6662 14.8031 26.8464C14.8031 26.8464 14.4534 26.5517 14.2635 26.0034C14.2123 25.8557 14.0144 25.8275 13.9286 25.9581C13.9121 25.9832 13.8968 26.0083 13.8831 26.0327C13.2352 27.1783 12.9235 28.5694 13.2116 29.8637C13.8677 32.8157 19.2457 32.7262 19.5756 29.4238C19.6851 28.3225 19.2612 26.9902 18.2968 25.9379Z" fill="#EAE9E8"/>
<path d="M14.4603 30.4496C14.1721 29.2918 14.4838 28.0474 15.1317 27.0226C15.1454 27.0008 15.1608 26.9784 15.1772 26.9559C15.2631 26.8391 15.461 26.8643 15.5121 26.9964C15.7021 27.4869 16.0518 27.7506 16.0518 27.7506C16.0658 26.8831 16.3801 26.0956 16.9573 25.4639C16.8282 25.2852 16.4333 24.8542 16.3589 23.9496C16.3491 23.8313 16.2086 23.7759 16.1208 23.8556C15.2811 24.6179 14.8201 25.6663 14.8031 26.8466C14.8031 26.8466 14.4534 26.5518 14.2634 26.0036C14.2123 25.8559 14.0143 25.8277 13.9285 25.9583C13.912 25.9834 13.8968 26.0085 13.883 26.0329C13.2351 27.1784 12.9234 28.5696 13.2116 29.8639C13.4782 31.0636 14.5736 31.7846 15.7846 31.9586C15.1313 31.6378 14.6293 31.1298 14.4603 30.4496Z" fill="#F7E7A1"/>
<path d="M11.5374 4.25281C12.8889 3.1535 12.8859 1.09681 11.5374 0C10.1858 1.09925 10.1888 3.156 11.5374 4.25281Z" fill="#D8553A"/>
<path d="M27.7371 13.0758C29.0886 11.9765 29.0856 9.91981 27.7371 8.823C27.1193 9.32537 26.3885 11.979 27.7371 13.0758Z" fill="#D8553A"/>
<path d="M3.79906 13.9129C4.77313 13.1206 4.771 11.6384 3.79906 10.8478C3.35388 11.2099 2.82713 13.1224 3.79906 13.9129Z" fill="#D8553A"/>
<path d="M20.6693 7.31788C21.6434 6.52557 21.6413 5.04338 20.6693 4.25282C19.6953 5.04507 19.6974 6.52738 20.6693 7.31788Z" fill="#D8553A"/>
<path d="M13.4944 17.8327C13.7181 15.192 14.7266 12.8439 16.4198 11.0539C16.4027 10.9241 16.3883 10.7909 16.377 10.654C16.3512 10.3404 15.9788 10.1932 15.7458 10.4047C13.9814 12.0063 12.849 14.0848 12.4319 16.4357L12.4312 16.4356C12.4003 16.6099 12.3619 16.8639 12.3377 17.0635C12.3377 17.0637 12.3378 17.0638 12.3379 17.064C12.2872 17.4805 12.2579 17.9045 12.2516 18.3354C12.2988 18.3446 13.3655 18.8929 13.4944 17.8327Z" fill="#E89528"/>
<path d="M12.2769 28.7176C11.8172 26.5472 12.2087 24.2329 13.1182 22.2276C12.942 21.9805 12.7492 21.6486 12.6065 21.2366C12.5146 20.9716 12.1594 20.9211 12.0052 21.1554C11.9756 21.2003 11.9481 21.2454 11.9234 21.2892C10.7605 23.3454 10.2011 25.8424 10.7182 28.1656C11.1232 29.9876 12.593 31.1949 14.3524 31.7124C13.3283 31.0326 12.5536 30.0262 12.2769 28.7176Z" fill="#E8C842"/>
<path d="M15.2344 21.8015C15.3868 20.7124 15.8323 19.5125 16.5334 18.5093C16.4571 18.2261 16.397 17.906 16.3677 17.5501C16.3502 17.3377 16.0981 17.2381 15.9404 17.3813C15.0013 18.2339 14.3272 19.2862 13.9443 20.4706L13.9432 20.4703C13.883 20.6564 13.7978 20.9646 13.7462 21.2079C13.7466 21.2078 13.7471 21.2078 13.7475 21.2076C13.6418 21.7041 13.5829 22.2194 13.5752 22.7498C14.4185 22.8551 15.1161 22.6462 15.2344 21.8015Z" fill="#E8C842"/>
</svg>
