<svg width="60" height="35" viewBox="0 0 60 35" fill="none" xmlns="http://www.w3.org/2000/svg">
<path d="M0 0.5H56C58.2091 0.5 60 2.29086 60 4.5V26.5C60 28.7091 58.2091 30.5 56 30.5H0V0.5Z" fill="#E42024"/>
<path d="M15.5043 21V10.8182H17.3487V15.1286H22.0668V10.8182H23.9162V21H22.0668V16.6747H17.3487V21H15.5043ZM35.0202 15.9091C35.0202 17.0062 34.8147 17.9458 34.4038 18.728C33.9961 19.5069 33.4393 20.1035 32.7333 20.5178C32.0307 20.9321 31.2335 21.1392 30.342 21.1392C29.4504 21.1392 28.6516 20.9321 27.9457 20.5178C27.243 20.1001 26.6862 19.5019 26.2752 18.723C25.8675 17.9408 25.6637 17.0028 25.6637 15.9091C25.6637 14.812 25.8675 13.8741 26.2752 13.0952C26.6862 12.313 27.243 11.7147 27.9457 11.3004C28.6516 10.8861 29.4504 10.679 30.342 10.679C31.2335 10.679 32.0307 10.8861 32.7333 11.3004C33.4393 11.7147 33.9961 12.313 34.4038 13.0952C34.8147 13.8741 35.0202 14.812 35.0202 15.9091ZM33.1658 15.9091C33.1658 15.1368 33.0449 14.4856 32.8029 13.9553C32.5643 13.4216 32.2328 13.0189 31.8086 12.7472C31.3844 12.4721 30.8955 12.3345 30.342 12.3345C29.7885 12.3345 29.2996 12.4721 28.8754 12.7472C28.4511 13.0189 28.118 13.4216 27.8761 13.9553C27.6374 14.4856 27.5181 15.1368 27.5181 15.9091C27.5181 16.6813 27.6374 17.3343 27.8761 17.8679C28.118 18.3982 28.4511 18.8009 28.8754 19.076C29.2996 19.3478 29.7885 19.4837 30.342 19.4837C30.8955 19.4837 31.3844 19.3478 31.8086 19.076C32.2328 18.8009 32.5643 18.3982 32.8029 17.8679C33.0449 17.3343 33.1658 16.6813 33.1658 15.9091ZM35.8654 12.3643V10.8182H43.989V12.3643H40.842V21H39.0124V12.3643H35.8654Z" fill="white"/>
<path d="M4 30.5H0L4 34.5V30.5Z" fill="#85090C"/>
</svg>
