<svg width="25" height="25" viewBox="0 0 25 25" fill="none" xmlns="http://www.w3.org/2000/svg">
<path fill-rule="evenodd" clip-rule="evenodd" d="M7.71903 0.572201C8.99897 0.513826 9.40763 0.5 12.6667 0.5C15.9256 0.5 16.3343 0.513826 17.6142 0.572201C18.8915 0.63047 19.7638 0.833355 20.5271 1.12995C21.3162 1.43662 21.9854 1.84696 22.6526 2.51406C23.3197 3.18117 23.73 3.85045 24.0367 4.63956C24.3333 5.40283 24.5362 6.27514 24.5944 7.5524C24.6528 8.83234 24.6666 9.24101 24.6666 12.5C24.6666 15.759 24.6528 16.1677 24.5944 17.4476C24.5362 18.7249 24.3333 19.5972 24.0367 20.3604C23.73 21.1495 23.3197 21.8188 22.6526 22.4859C21.9854 23.153 21.3162 23.5634 20.5271 23.8701C19.7638 24.1666 18.8915 24.3695 17.6142 24.4278C16.3343 24.4862 15.9256 24.5 12.6667 24.5C9.40763 24.5 8.99897 24.4862 7.71903 24.4278C6.44177 24.3695 5.56946 24.1666 4.80615 23.8701C4.01704 23.5634 3.34786 23.153 2.68073 22.4859C2.01362 21.8188 1.60328 21.1495 1.29661 20.3604C0.999945 19.5972 0.797131 18.7249 0.738792 17.4476C0.680416 16.1677 0.666626 15.759 0.666626 12.5C0.666626 9.24101 0.680416 8.83234 0.738792 7.5524C0.797131 6.27514 0.999945 5.40283 1.29661 4.63956C1.60324 3.85045 2.01359 3.18117 2.68073 2.51406C3.34783 1.84696 4.01704 1.43662 4.80615 1.12995C5.56946 0.833355 6.44177 0.63047 7.71903 0.572201ZM8.66694 12.5C8.66694 14.7092 10.4578 16.5 12.667 16.5C14.8761 16.5 16.667 14.7092 16.667 12.5C16.667 10.2908 14.8761 8.49998 12.667 8.49998C10.4578 8.49998 8.66694 10.2908 8.66694 12.5ZM6.5048 12.5C6.5048 9.09671 9.26367 6.33784 12.667 6.33784C16.0702 6.33784 18.8291 9.09671 18.8291 12.5C18.8291 15.9033 16.0702 18.6622 12.667 18.6622C9.26367 18.6622 6.5048 15.9033 6.5048 12.5ZM19.0726 7.53436C19.8679 7.53436 20.5126 6.88969 20.5126 6.09437C20.5126 5.29908 19.8679 4.65434 19.0726 4.65434C18.2773 4.65434 17.6326 5.29908 17.6326 6.09437C17.6326 6.88969 18.2773 7.53436 19.0726 7.53436Z" fill="#2C2A29"/>
</svg>
