<svg width="25" height="25" viewBox="0 0 25 25" fill="none" xmlns="http://www.w3.org/2000/svg">
<path d="M22.8901 0.5H2.4385C1.45881 0.5 0.666626 1.27344 0.666626 2.22969V22.7656C0.666626 23.7219 1.45881 24.5 2.4385 24.5H22.8901C23.8698 24.5 24.6666 23.7219 24.6666 22.7703V2.22969C24.6666 1.27344 23.8698 0.5 22.8901 0.5ZM7.78694 20.9516H4.22444V9.49531H7.78694V20.9516ZM6.00569 7.93438C4.86194 7.93438 3.9385 7.01094 3.9385 5.87187C3.9385 4.73281 4.86194 3.80937 6.00569 3.80937C7.14475 3.80937 8.06819 4.73281 8.06819 5.87187C8.06819 7.00625 7.14475 7.93438 6.00569 7.93438ZM21.1182 20.9516H17.5604V15.3828C17.5604 14.0562 17.5369 12.3453 15.7088 12.3453C13.8573 12.3453 13.576 13.7937 13.576 15.2891V20.9516H10.0229V9.49531H13.4354V11.0609H13.4823C13.9557 10.1609 15.1182 9.20938 16.8479 9.20938C20.4526 9.20938 21.1182 11.5813 21.1182 14.6656V20.9516Z" fill="#2C2A29"/>
</svg>
