<svg width="16" height="17" viewBox="0 0 16 17" fill="none" xmlns="http://www.w3.org/2000/svg">
<path d="M13.7467 6.13332C13.0467 3.05332 10.36 1.66666 8 1.66666C8 1.66666 8 1.66666 7.99333 1.66666C5.64 1.66666 2.94667 3.04666 2.24667 6.12666C1.46667 9.56666 3.57333 12.48 5.48 14.3133C6.18667 14.9933 7.09333 15.3333 8 15.3333C8.90667 15.3333 9.81333 14.9933 10.5133 14.3133C12.42 12.48 14.5267 9.57332 13.7467 6.13332ZM8 9.47332C6.84 9.47332 5.9 8.53332 5.9 7.37332C5.9 6.21332 6.84 5.27332 8 5.27332C9.16 5.27332 10.1 6.21332 10.1 7.37332C10.1 8.53332 9.16 9.47332 8 9.47332Z" fill="#FFA21A"/>
</svg>
