<svg width="32" height="32" viewBox="0 0 32 32" fill="none" xmlns="http://www.w3.org/2000/svg">
<path fill-rule="evenodd" clip-rule="evenodd" d="M29.1809 9L29.6871 8.41852C30.1708 7.86323 30.087 6.97985 29.4818 6.42418C28.877 5.86696 27.9888 5.85502 27.5054 6.41031L27 6.99218L29.1809 9Z" fill="#808080"/>
<path fill-rule="evenodd" clip-rule="evenodd" d="M19 3H21V6H19V3Z" fill="#CCCCCC"/>
<path fill-rule="evenodd" clip-rule="evenodd" d="M18.7408 1H22.2592C22.669 1 23 1.28328 23 1.63622V2.36378C23 2.71672 22.669 3 22.2592 3H18.7408C18.3306 3 18 2.71672 18 2.36378V1.63622C18 1.28328 18.3306 1 18.7408 1Z" fill="#808080"/>
<path fill-rule="evenodd" clip-rule="evenodd" d="M20.5787 5C26.8865 5 32 10.1486 32 16.4994C32 22.851 26.8865 28 20.5787 28C17.4639 28 15.401 26.9622 11.1734 25.5171L12.3504 24.3258C12.879 23.7895 12.3607 22.8125 11.5802 23.1154C8.03026 24.488 5.96115 23.0223 4.95212 19.7114C6.47904 20.6867 8.58768 20.0143 9.24842 19.3485C10.2723 18.3185 9.87253 17.1271 7.56794 17.8927C4.61248 18.8722 1.49687 17.1578 0 12.9174C4.52191 15.2008 4.85496 10.5016 9.63129 11.7538C9.22496 10.1064 8.1233 9.56309 5.6001 9.62806C8.1023 6.45827 11.7416 8.09944 15.5797 6.15991C17.0893 5.41712 18.7846 5 20.5787 5Z" fill="#FD6B65"/>
<path fill-rule="evenodd" clip-rule="evenodd" d="M29 16.5004C29 21.1949 25.4194 25 21 25C18.878 25 16.8432 24.1056 15.3428 22.5103C13.8429 20.9168 13 18.7547 13 16.5004C13 14.2449 13.8425 12.0854 15.3428 10.4893C16.8432 8.89572 18.878 8 21 8C25.4194 8 29 11.8068 29 16.5004Z" fill="#F2F2F2"/>
<path d="M20.5816 9.27924C20.3478 9.2829 20.1601 9.47715 20.1625 9.71131V10.3242C20.1625 10.8902 21.0136 10.8902 21.0136 10.3242V9.71131C21.0177 9.47064 20.8222 9.27516 20.5816 9.27924Z" fill="#808080"/>
<path d="M20.5816 21.7501C20.3478 21.7521 20.1601 21.9455 20.1625 22.1821V22.793C20.1625 23.3611 21.0136 23.3611 21.0136 22.793V22.1821C21.0177 21.9419 20.8222 21.7456 20.5816 21.7501Z" fill="#808080"/>
<path d="M26.5037 15.8271C25.9377 15.8271 25.9377 16.6786 26.5037 16.6786H27.1146C27.6802 16.6786 27.6802 15.8271 27.1146 15.8271H26.5037Z" fill="#808080"/>
<path d="M14.0534 15.8271C13.4878 15.8271 13.4878 16.6786 14.0534 16.6786H14.6663C15.2323 16.6786 15.2323 15.8271 14.6663 15.8271H14.0534Z" fill="#808080"/>
<path d="M24.7679 20.0167C24.3851 20.0167 24.1977 20.4809 24.4718 20.7464L24.9019 21.1789C25.066 21.356 25.3441 21.3593 25.5147 21.1899C25.6846 21.0193 25.6789 20.7428 25.5017 20.5791L25.0717 20.147C24.9914 20.0639 24.8831 20.0167 24.7679 20.0167Z" fill="#808080"/>
<path d="M15.9624 11.1979C15.5808 11.1979 15.3943 11.6622 15.6668 11.9281L16.0988 12.3581C16.2621 12.5345 16.5411 12.5414 16.7117 12.3704C16.8815 12.2005 16.875 11.9216 16.6987 11.7575L16.2687 11.3278C16.188 11.2448 16.0777 11.1979 15.9624 11.1979Z" fill="#808080"/>
<path d="M25.1976 11.1982C25.0872 11.2006 24.9801 11.2475 24.904 11.3281L24.4739 11.7577C24.2976 11.9218 24.2911 12.2008 24.4609 12.3706C24.6311 12.5412 24.9105 12.5347 25.0738 12.3584L25.5038 11.9284C25.7828 11.658 25.5849 11.1856 25.1976 11.1982Z" fill="#808080"/>
<path d="M16.3904 20.0168C16.28 20.0213 16.1729 20.0657 16.0968 20.1471L15.6647 20.5792C15.4879 20.7429 15.4839 21.0194 15.6537 21.1901C15.8239 21.3599 16.1025 21.3562 16.2666 21.1791L16.6966 20.7466C16.9756 20.477 16.7781 20.0066 16.3904 20.0168Z" fill="#808080"/>
<path fill-rule="evenodd" clip-rule="evenodd" d="M20.6998 15.6166C21.0553 15.6166 21.3363 15.896 21.3363 16.2531C21.3363 16.6111 21.0557 16.8896 20.6998 16.8896C20.3447 16.8896 20.0633 16.6111 20.0633 16.2531C20.0633 15.8956 20.3447 15.6166 20.6998 15.6166ZM23.5704 12.8189C23.4621 12.821 23.3558 12.8657 23.2788 12.9443L21.3192 14.9088C21.1294 14.8196 20.9209 14.7663 20.6998 14.7663C19.8849 14.7663 19.2167 15.4386 19.2167 16.2531C19.2167 17.068 19.8849 17.7411 20.6998 17.7411C21.5147 17.7411 22.1834 17.068 22.1834 16.2531C22.1834 15.966 22.0978 15.7005 21.9557 15.4724L23.8791 13.5446C24.1515 13.2742 23.9556 12.81 23.5704 12.8189Z" fill="#808080"/>
</svg>
