<svg width="25" height="25" viewBox="0 0 25 25" fill="none" xmlns="http://www.w3.org/2000/svg">
<g clip-path="url(#clip0_1_8104)">
<path d="M24.4276 7.70005C24.4276 7.70005 24.1932 6.04536 23.4713 5.3188C22.5573 4.36255 21.5354 4.35786 21.0666 4.30161C17.7104 4.05786 12.6713 4.05786 12.6713 4.05786H12.6619C12.6619 4.05786 7.62288 4.05786 4.26663 4.30161C3.79788 4.35786 2.776 4.36255 1.86194 5.3188C1.14006 6.04536 0.910376 7.70005 0.910376 7.70005C0.910376 7.70005 0.666626 9.64536 0.666626 11.586V13.4047C0.666626 15.3454 0.905688 17.2907 0.905688 17.2907C0.905688 17.2907 1.14006 18.9454 1.85725 19.6719C2.77131 20.6282 3.97131 20.5954 4.50569 20.6985C6.42756 20.8813 12.6666 20.9375 12.6666 20.9375C12.6666 20.9375 17.7104 20.9282 21.0666 20.6891C21.5354 20.6329 22.5573 20.6282 23.4713 19.6719C24.1932 18.9454 24.4276 17.2907 24.4276 17.2907C24.4276 17.2907 24.6666 15.35 24.6666 13.4047V11.586C24.6666 9.64536 24.4276 7.70005 24.4276 7.70005ZM10.1869 15.6125V8.86724L16.6698 12.2516L10.1869 15.6125Z" fill="#2C2A29"/>
</g>
<defs>
<clipPath id="clip0_1_8104">
<rect width="24" height="24" fill="white" transform="translate(0.666626 0.5)"/>
</clipPath>
</defs>
</svg>
